<?xml version="1.0" encoding="utf-8"?>
<!-- Generator: Adobe Illustrator 15.1.0, SVG Export Plug-In . SVG Version: 6.00 Build 0)  -->
<!DOCTYPE svg PUBLIC "-//W3C//DTD SVG 1.1//EN" "http://www.w3.org/Graphics/SVG/1.1/DTD/svg11.dtd">
<svg version="1.1" id="Layer_1" xmlns="http://www.w3.org/2000/svg" xmlns:xlink="http://www.w3.org/1999/xlink" x="0px" y="0px"
	 width="100px" height="50px" viewBox="0 0 100 50" enable-background="new 0 0 100 50" xml:space="preserve">
<g>
	<g>
		<g>
			<path fill="#9E9E9E" d="M84.016,12.792c-1.887-1.06-2.555-4.25-0.562-7.094c1.973-2.813,5.296-3.767,6.601-2.462
				c1.567,1.568,1.002,4.777-0.361,6.992C88.504,12.16,86.136,13.981,84.016,12.792"/>
			<path fill="#9E9E9E" d="M66.654,31.553c2.7-8.706,12.386-16.551,14.938-16.555c2.552-0.005,3.872,2.546,0.646,7.802
				c0,0-1.763,2.783-6.246,7.47c0,0-4.518,3.848-2.582,7.537c1.27,1.969,4.043,3.414,8.644-0.051c2.058-1.551,5.993-4.82,5.993-4.82
				s0.217,2.498,0.139,3.822C80.467,46.889,75.644,49.842,70.86,46.941C66.758,44.453,65.152,36.396,66.654,31.553"/>
			<path fill="#9E9E9E" d="M4.689,26.949h17.059v-11.92c0,0,1.68-2.207,3.504-0.039v28.522c0,0-1.402,2.131-3.596,0V30.547H8.328
				v12.965c0,0-0.395,0.977-1.136,0.957c-1.232-0.033-4.142,0.02-4.977,0C2.364,44.473,1,44.053,1,43.512V14.871
				c0,0,1.752-1.976,3.596-0.039L4.689,26.949z"/>
			<path fill="#9E9E9E" d="M27.557,14.95c0,0,1.844-1.976,3.596-0.039v11.945h8.852V14.792c0,0,1.66-1.607,3.689-0.04v12.197h5.163
				c0,0,0.738,0.092,0.738,0.736v15.826c0,0-1.477,1.844-3.597,0V30.547H35.068v12.965c0,0-0.184,0.957-1.106,0.957h-5.139
				c0,0-1.358-0.232-1.358-0.957L27.557,14.95z"/>
			<path fill="#9E9E9E" d="M53.074,32.889c0-7.525,5.297-19.866,18.409-22.117c3.497-0.602,7.355-0.258,10.808,3.001
				c0,0-1.221-0.639-4.861,2.004C65.094,13.17,57.979,25.907,57.966,32.83c-0.006,3.566,2.001,9.416,8.067,9.418
				c0,0,0.808,2.672,2.314,4.6C64.309,48.094,53.074,45.803,53.074,32.889"/>
			<path fill="#9E9E9E" d="M76.367,38.266c1.629,0.846,4.102-0.119,8.742-4.461c1.146-1.807,2.049-5.246,2.051-8.2
				c0-4.1-0.538-6.753-1.871-8.623c-0.18,4.161-1.627,5.971-2.998,7.778C82.291,30.309,80.167,34.648,76.367,38.266"/>
		</g>
	</g>
</g>
</svg>
